<svg width="224" height="27" viewBox="0 0 224 27" fill="none" xmlns="http://www.w3.org/2000/svg">
<path d="M0 14.52L6.688 0.286H9.856L16.61 14.52H13.42L7.568 1.694H8.976L3.168 14.52H0Z" fill="black"/>
<path d="M35.8036 8.228V0.286H38.7296V8.536C38.7296 9.47467 38.5903 10.296 38.3116 11C38.0476 11.704 37.6663 12.298 37.1676 12.782C36.669 13.266 36.0823 13.662 35.4076 13.97C34.7476 14.2633 34.0216 14.476 33.2296 14.608C32.4523 14.74 31.631 14.806 30.7656 14.806C29.871 14.806 29.0203 14.74 28.2136 14.608C27.407 14.476 26.6663 14.2633 25.9916 13.97C25.3316 13.662 24.7596 13.266 24.2756 12.782C23.7916 12.298 23.4103 11.704 23.1316 11C22.8676 10.296 22.7356 9.47467 22.7356 8.536V0.286H25.6616V8.228C25.6616 9.34267 25.8816 10.1933 26.3216 10.78C26.7616 11.352 27.363 11.748 28.1256 11.968C28.903 12.1733 29.783 12.276 30.7656 12.276C31.719 12.276 32.5696 12.1733 33.3176 11.968C34.0803 11.748 34.6816 11.352 35.1216 10.78C35.5763 10.1933 35.8036 9.34267 35.8036 8.228Z" fill="black"/>
<path d="M54.6985 14.806C53.3785 14.806 52.1832 14.652 51.1125 14.344C50.0565 14.036 49.1399 13.574 48.3625 12.958C47.5999 12.342 47.0132 11.5793 46.6025 10.67C46.1919 9.76067 45.9865 8.712 45.9865 7.524C45.9865 6.32133 46.1992 5.258 46.6245 4.334C47.0645 3.39533 47.6805 2.60333 48.4725 1.958C49.2792 1.31267 50.2325 0.828667 51.3325 0.506C52.4472 0.168667 53.6792 0 55.0285 0C56.6272 0 58.0059 0.227333 59.1645 0.682C60.3232 1.122 61.2325 1.74533 61.8925 2.552C62.5672 3.35867 62.9485 4.31933 63.0365 5.434H60.2205C60.0299 4.84733 59.7145 4.34133 59.2745 3.916C58.8492 3.476 58.2845 3.13867 57.5805 2.904C56.8765 2.65467 56.0259 2.53 55.0285 2.53C53.7525 2.53 52.6599 2.73533 51.7505 3.146C50.8559 3.55667 50.1739 4.136 49.7045 4.884C49.2352 5.632 49.0005 6.512 49.0005 7.524C49.0005 8.50667 49.2059 9.35733 49.6165 10.076C50.0272 10.78 50.6579 11.3227 51.5085 11.704C52.3739 12.0853 53.4739 12.276 54.8085 12.276C55.8352 12.276 56.7372 12.144 57.5145 11.88C58.3065 11.6013 58.9665 11.2347 59.4945 10.78C60.0225 10.3107 60.3965 9.79 60.6165 9.218L61.7605 8.8C61.5699 10.692 60.8512 12.166 59.6045 13.222C58.3725 14.278 56.7372 14.806 54.6985 14.806ZM61.0125 14.52C61.0125 14.0653 61.0419 13.5447 61.1005 12.958C61.1592 12.3567 61.2325 11.7553 61.3205 11.154C61.4085 10.538 61.4892 9.97333 61.5625 9.46H55.0505V7.59H63.5425V14.52H61.0125Z" fill="black"/>
<path d="M84.0919 8.228V0.286H87.0179V8.536C87.0179 9.47467 86.8786 10.296 86.5999 11C86.3359 11.704 85.9546 12.298 85.4559 12.782C84.9572 13.266 84.3706 13.662 83.6959 13.97C83.0359 14.2633 82.3099 14.476 81.5179 14.608C80.7406 14.74 79.9192 14.806 79.0539 14.806C78.1592 14.806 77.3086 14.74 76.5019 14.608C75.6952 14.476 74.9546 14.2633 74.2799 13.97C73.6199 13.662 73.0479 13.266 72.5639 12.782C72.0799 12.298 71.6986 11.704 71.4199 11C71.1559 10.296 71.0239 9.47467 71.0239 8.536V0.286H73.9499V8.228C73.9499 9.34267 74.1699 10.1933 74.6099 10.78C75.0499 11.352 75.6512 11.748 76.4139 11.968C77.1912 12.1733 78.0712 12.276 79.0539 12.276C80.0072 12.276 80.8579 12.1733 81.6059 11.968C82.3686 11.748 82.9699 11.352 83.4099 10.78C83.8646 10.1933 84.0919 9.34267 84.0919 8.228Z" fill="black"/>
<path d="M94.8028 14.52V0.286H104.461C105.561 0.286 106.514 0.44 107.321 0.747999C108.142 1.04133 108.78 1.51067 109.235 2.156C109.689 2.78667 109.917 3.60067 109.917 4.598C109.917 5.27267 109.799 5.84467 109.565 6.314C109.33 6.78333 109 7.16467 108.575 7.458C108.164 7.75133 107.687 7.97867 107.145 8.14C106.602 8.28667 106.023 8.382 105.407 8.426L105.099 8.25C106.125 8.26467 106.969 8.35267 107.629 8.514C108.289 8.66067 108.78 8.93933 109.103 9.35C109.44 9.746 109.609 10.34 109.609 11.132V14.52H106.683V11.33C106.683 10.7873 106.587 10.3693 106.397 10.076C106.206 9.768 105.861 9.55533 105.363 9.438C104.879 9.32067 104.175 9.262 103.251 9.262H97.7288V14.52H94.8028ZM97.7288 6.974H104.461C105.282 6.974 105.905 6.776 106.331 6.38C106.771 5.984 106.991 5.44867 106.991 4.774C106.991 4.12867 106.771 3.63733 106.331 3.3C105.905 2.96267 105.282 2.794 104.461 2.794H97.7288V6.974Z" fill="black"/>
<path d="M120.305 8.58V12.078H131.283V14.52H117.379V0.286H131.261V2.728H120.305V6.27H129.281V8.58H120.305Z" fill="black"/>
<path d="M137.741 9.724H140.711C140.769 10.2227 140.997 10.6773 141.393 11.088C141.803 11.484 142.339 11.7993 142.999 12.034C143.659 12.254 144.399 12.364 145.221 12.364C145.969 12.364 146.585 12.2833 147.069 12.122C147.553 11.9607 147.912 11.7333 148.147 11.44C148.381 11.1467 148.499 10.7947 148.499 10.384C148.499 9.988 148.352 9.68733 148.059 9.482C147.765 9.262 147.303 9.086 146.673 8.954C146.042 8.80733 145.213 8.66067 144.187 8.514C143.38 8.39667 142.617 8.23533 141.899 8.03C141.18 7.81 140.542 7.53133 139.985 7.194C139.442 6.85667 139.009 6.446 138.687 5.962C138.379 5.46333 138.225 4.87667 138.225 4.202C138.225 3.366 138.459 2.63267 138.929 2.002C139.413 1.37133 140.124 0.88 141.063 0.528C142.001 0.176 143.153 0 144.517 0C146.57 0 148.147 0.44 149.247 1.32C150.361 2.18533 150.904 3.38067 150.875 4.906H148.015C147.956 4.04067 147.589 3.41733 146.915 3.036C146.255 2.65467 145.419 2.464 144.407 2.464C143.468 2.464 142.691 2.60333 142.075 2.882C141.473 3.16067 141.173 3.63733 141.173 4.312C141.173 4.576 141.246 4.81067 141.393 5.016C141.539 5.20667 141.789 5.37533 142.141 5.522C142.493 5.66867 142.969 5.808 143.571 5.94C144.172 6.072 144.92 6.204 145.815 6.336C146.651 6.45333 147.406 6.61467 148.081 6.82C148.77 7.01067 149.357 7.26733 149.841 7.59C150.339 7.898 150.721 8.294 150.985 8.778C151.249 9.262 151.381 9.856 151.381 10.56C151.381 11.4253 151.153 12.1807 150.699 12.826C150.259 13.4567 149.569 13.948 148.631 14.3C147.707 14.652 146.504 14.828 145.023 14.828C143.967 14.828 143.035 14.718 142.229 14.498C141.422 14.2633 140.725 13.9553 140.139 13.574C139.552 13.1927 139.075 12.7747 138.709 12.32C138.342 11.8653 138.078 11.4107 137.917 10.956C137.77 10.5013 137.711 10.0907 137.741 9.724Z" fill="black"/>
<path d="M170.995 0.286V12.078H180.455V14.52H168.069V0.286H170.995Z" fill="black"/>
<path d="M186.252 14.52L192.94 0.286H196.108L202.862 14.52H199.672L193.82 1.694H195.228L189.42 14.52H186.252Z" fill="black"/>
<path d="M209.332 14.52V0.286H217.538C219.444 0.286 220.889 0.608667 221.872 1.254C222.869 1.88467 223.368 2.83067 223.368 4.092C223.368 4.89867 223.17 5.53667 222.774 6.006C222.378 6.46067 221.813 6.798 221.08 7.018C220.361 7.238 219.51 7.37733 218.528 7.436L218.616 7.282C219.334 7.29667 220.009 7.348 220.64 7.436C221.285 7.524 221.85 7.68533 222.334 7.92C222.818 8.15467 223.199 8.48467 223.478 8.91C223.756 9.32067 223.896 9.86333 223.896 10.538C223.896 11.418 223.661 12.1513 223.192 12.738C222.722 13.31 222.07 13.7427 221.234 14.036C220.398 14.3293 219.43 14.4907 218.33 14.52H209.332ZM212.258 12.1H218.022C218.946 12.1 219.657 11.9533 220.156 11.66C220.654 11.352 220.904 10.868 220.904 10.208C220.904 9.724 220.757 9.372 220.464 9.152C220.17 8.932 219.782 8.8 219.298 8.756C218.814 8.69733 218.293 8.668 217.736 8.668H212.258V12.1ZM212.258 6.314H217.428C218.352 6.314 219.063 6.182 219.562 5.918C220.06 5.63933 220.31 5.17 220.31 4.51C220.31 3.85 220.06 3.388 219.562 3.124C219.063 2.84533 218.403 2.706 217.582 2.706H212.258V6.314Z" fill="black"/>
</svg>
