<svg width="224" height="27" viewBox="0 0 224 27" fill="none" xmlns="http://www.w3.org/2000/svg">
<g clip-path="url(#clip0_201_674)">
<path d="M5.84342 24.0554L5.61476 24.1252V18.5154H6.44623V25.0036H5.61476L1.22879 19.4737L1.45744 19.4038V25.0036H0.625977V18.5154H1.45744L5.84342 24.0554Z" fill="black"/>
<path d="M12.8353 22.5082V18.5154H13.6667V22.5082C13.6667 22.8742 13.6217 23.2002 13.5316 23.4864C13.4415 23.7659 13.3134 24.0088 13.1471 24.2151C12.9877 24.4214 12.7937 24.591 12.565 24.7241C12.3364 24.8506 12.08 24.9437 11.7959 25.0036C11.5188 25.0702 11.2208 25.1034 10.9021 25.1034C10.5765 25.1034 10.2716 25.0702 9.9875 25.0036C9.70342 24.9437 9.44359 24.8506 9.20801 24.7241C8.97935 24.591 8.78188 24.4214 8.61559 24.2151C8.45622 24.0088 8.3315 23.7659 8.24143 23.4864C8.15135 23.2002 8.10632 22.8742 8.10632 22.5082V18.5154H8.93778V22.5082C8.93778 23.0073 9.02786 23.3899 9.20801 23.6561C9.38816 23.9223 9.6272 24.1053 9.92514 24.2051C10.2231 24.3049 10.5487 24.3548 10.9021 24.3548C11.2486 24.3548 11.5673 24.3049 11.8583 24.2051C12.1493 24.1053 12.3849 23.9223 12.565 23.6561C12.7452 23.3899 12.8353 23.0073 12.8353 22.5082Z" fill="black"/>
<path d="M19.2408 24.5245H18.9082L21.9846 18.5154H22.8161V25.0036H21.9846V19.9029L22.1509 19.9428L19.4902 25.0036H18.6588L15.9981 19.9528L16.1644 19.9129V25.0036H15.3329V18.5154H16.1644L19.2408 24.5245Z" fill="black"/>
<path d="M25.3093 22.1488V24.255H29.2691V25.0036H24.4778V18.5154H29.2587V19.2641H25.3093V21.4002H28.5416V22.1488H25.3093ZM26.4629 17.6071L27.5646 16H28.6559L27.2008 17.6071H26.4629Z" fill="black"/>
<path d="M30.7199 25.0036V18.5154H33.7028C34.1739 18.5154 34.5758 18.5853 34.9084 18.725C35.241 18.8581 35.4939 19.0611 35.6671 19.3339C35.8472 19.6068 35.9373 19.9495 35.9373 20.3621C35.9373 20.6416 35.8888 20.8811 35.7918 21.0808C35.7017 21.2804 35.5736 21.4501 35.4073 21.5898C35.241 21.7229 35.0435 21.8261 34.8148 21.8993C34.5931 21.9725 34.3506 22.0191 34.0873 22.039L34.0561 21.9891C34.4234 22.0024 34.7386 22.0457 35.0019 22.1189C35.2652 22.1921 35.4696 22.3252 35.6151 22.5181C35.7606 22.7111 35.8334 23.0006 35.8334 23.3866V25.0036H35.0019V23.3866C35.0019 23.1204 34.9534 22.9141 34.8564 22.7677C34.7663 22.6146 34.6104 22.5082 34.3887 22.4483C34.1739 22.3817 33.876 22.3485 33.4949 22.3485H31.5513V25.0036H30.7199ZM31.5513 21.5998H33.7028C34.1739 21.5998 34.5238 21.4867 34.7525 21.2604C34.9881 21.0275 35.1059 20.7281 35.1059 20.3621C35.1059 20.0094 34.9881 19.7399 34.7525 19.5535C34.5238 19.3606 34.1739 19.2641 33.7028 19.2641H31.5513V21.5998Z" fill="black"/>
<path d="M37.5961 18.5154H38.4276V25.0036H37.5961V18.5154Z" fill="black"/>
<path d="M42.8995 24.5744H43.731V27H42.8995V24.5744ZM43.3153 25.1034C42.6986 25.1034 42.1374 24.967 41.6315 24.6942C41.1327 24.4147 40.7343 24.0254 40.4363 23.5263C40.1384 23.0272 39.9894 22.4383 39.9894 21.7595C39.9894 21.0808 40.1384 20.4918 40.4363 19.9927C40.7343 19.487 41.1327 19.0977 41.6315 18.8249C42.1374 18.552 42.6986 18.4156 43.3153 18.4156C43.9319 18.4156 44.4897 18.552 44.9886 18.8249C45.4944 19.0977 45.8963 19.487 46.1942 19.9927C46.4922 20.4918 46.6411 21.0808 46.6411 21.7595C46.6411 22.4383 46.4922 23.0272 46.1942 23.5263C45.8963 24.0254 45.4944 24.4147 44.9886 24.6942C44.4897 24.967 43.9319 25.1034 43.3153 25.1034ZM43.3153 24.3548C43.7864 24.3548 44.2091 24.2583 44.5832 24.0653C44.9574 23.8657 45.2553 23.5729 45.4771 23.1869C45.6988 22.801 45.8097 22.3252 45.8097 21.7595C45.8097 21.1939 45.6988 20.7214 45.4771 20.3421C45.2553 19.9561 44.9574 19.6633 44.5832 19.4637C44.2091 19.2641 43.7864 19.1642 43.3153 19.1642C42.851 19.1642 42.4284 19.2641 42.0473 19.4637C41.6731 19.6633 41.3752 19.9561 41.1535 20.3421C40.9317 20.7214 40.8209 21.1939 40.8209 21.7595C40.8209 22.3252 40.9317 22.801 41.1535 23.1869C41.3752 23.5729 41.6731 23.8657 42.0473 24.0653C42.4284 24.2583 42.851 24.3548 43.3153 24.3548Z" fill="black"/>
<path d="M52.7236 22.5082V18.5154H53.5551V22.5082C53.5551 22.8742 53.5101 23.2002 53.42 23.4864C53.3299 23.7659 53.2017 24.0088 53.0354 24.2151C52.8761 24.4214 52.6821 24.591 52.4534 24.7241C52.2248 24.8506 51.9684 24.9437 51.6843 25.0036C51.4072 25.0702 51.1092 25.1034 50.7905 25.1034C50.4648 25.1034 50.16 25.0702 49.8759 25.0036C49.5918 24.9437 49.332 24.8506 49.0964 24.7241C48.8677 24.591 48.6703 24.4214 48.504 24.2151C48.3446 24.0088 48.2199 23.7659 48.1298 23.4864C48.0397 23.2002 47.9947 22.8742 47.9947 22.5082V18.5154H48.8262V22.5082C48.8262 23.0073 48.9162 23.3899 49.0964 23.6561C49.2765 23.9223 49.5156 24.1053 49.8135 24.2051C50.1115 24.3049 50.4371 24.3548 50.7905 24.3548C51.1369 24.3548 51.4557 24.3049 51.7467 24.2051C52.0377 24.1053 52.2733 23.9223 52.4534 23.6561C52.6336 23.3899 52.7236 23.0073 52.7236 22.5082Z" fill="black"/>
<path d="M56.0528 22.1488V24.255H60.0126V25.0036H55.2213V18.5154H60.0022V19.2641H56.0528V21.4002H59.2851V22.1488H56.0528Z" fill="black"/>
<path d="M63.6455 25.0036V18.5154H66.6284C67.0996 18.5154 67.5015 18.5853 67.8341 18.725C68.1666 18.8581 68.4195 19.0611 68.5928 19.3339C68.7729 19.6068 68.863 19.9495 68.863 20.3621C68.863 20.6416 68.8145 20.8811 68.7175 21.0808C68.6274 21.2804 68.4992 21.4501 68.3329 21.5898C68.1666 21.7229 67.9692 21.8261 67.7405 21.8993C67.5188 21.9725 67.2763 22.0191 67.013 22.039L66.9818 21.9891C67.349 22.0024 67.6643 22.0457 67.9276 22.1189C68.1909 22.1921 68.3953 22.3252 68.5408 22.5181C68.6863 22.7111 68.7591 23.0006 68.7591 23.3866V25.0036H67.9276V23.3866C67.9276 23.1204 67.8791 22.9141 67.7821 22.7677C67.692 22.6146 67.5361 22.5082 67.3144 22.4483C67.0996 22.3817 66.8017 22.3485 66.4206 22.3485H64.477V25.0036H63.6455ZM64.477 21.5998H66.6284C67.0996 21.5998 67.4495 21.4867 67.6782 21.2604C67.9137 21.0275 68.0315 20.7281 68.0315 20.3621C68.0315 20.0094 67.9137 19.7399 67.6782 19.5535C67.4495 19.3606 67.0996 19.2641 66.6284 19.2641H64.477V21.5998Z" fill="black"/>
<path d="M71.1454 22.1488V24.255H75.1052V25.0036H70.3139V18.5154H75.0948V19.2641H71.1454V21.4002H74.3777V22.1488H71.1454Z" fill="black"/>
<path d="M76.0987 22.8975H76.847C76.8678 23.177 76.9544 23.4265 77.1068 23.6461C77.2593 23.8657 77.4671 24.0387 77.7304 24.1652C78.0007 24.2916 78.3159 24.3548 78.6762 24.3548C78.988 24.3548 79.2479 24.3116 79.4557 24.225C79.6705 24.1319 79.8299 24.0054 79.9338 23.8457C80.0447 23.686 80.1001 23.4997 80.1001 23.2868C80.1001 23.0672 80.0447 22.8908 79.9338 22.7577C79.8229 22.6246 79.6636 22.5115 79.4557 22.4183C79.2479 22.3252 79.0019 22.2353 78.7178 22.1488C78.4476 22.069 78.1739 21.9758 77.8967 21.8693C77.6196 21.7629 77.3597 21.6331 77.1172 21.48C76.8816 21.327 76.6911 21.144 76.5456 20.931C76.4001 20.7114 76.3273 20.4486 76.3273 20.1425C76.3273 19.843 76.4105 19.5635 76.5768 19.304C76.75 19.0378 76.9994 18.8249 77.3251 18.6652C77.6577 18.4988 78.0561 18.4156 78.5203 18.4156C79.2479 18.4156 79.7918 18.6053 80.1521 18.9846C80.5124 19.3639 80.6856 19.8663 80.6717 20.4918H79.9234C79.9096 20.0194 79.771 19.68 79.5077 19.4737C79.2444 19.2674 78.9014 19.1642 78.4787 19.1642C78.1254 19.1642 77.817 19.2441 77.5537 19.4038C77.2904 19.5569 77.1588 19.7998 77.1588 20.1325C77.1588 20.2789 77.1865 20.4087 77.2419 20.5218C77.3043 20.6283 77.4013 20.7281 77.533 20.8212C77.6715 20.9144 77.8551 21.0076 78.0838 21.1007C78.3194 21.1872 78.6069 21.2837 78.9464 21.3902C79.1682 21.4567 79.3934 21.5366 79.622 21.6298C79.8576 21.7229 80.0724 21.8394 80.2664 21.9791C80.4673 22.1189 80.6267 22.2985 80.7445 22.5181C80.8692 22.7311 80.9316 23.0006 80.9316 23.3267C80.9316 23.6394 80.8519 23.9322 80.6925 24.2051C80.5401 24.4713 80.2976 24.6875 79.965 24.8539C79.6393 25.0203 79.2167 25.1034 78.697 25.1034C78.2536 25.1034 77.8725 25.0469 77.5537 24.9338C77.2419 24.814 76.9856 24.6609 76.7846 24.4746C76.5837 24.2883 76.4278 24.0953 76.3169 23.8956C76.213 23.6894 76.1437 23.4964 76.1091 23.3167C76.0744 23.137 76.071 22.9973 76.0987 22.8975Z" fill="black"/>
<path d="M82.8233 22.7078V21.9592H84.9435C85.3593 21.9592 85.6953 21.8361 85.9517 21.5898C86.215 21.337 86.3466 21.0109 86.3466 20.6116C86.3466 20.199 86.215 19.873 85.9517 19.6334C85.6953 19.3872 85.3593 19.2641 84.9435 19.2641H82.9896V25.0036H82.1581V18.5154H84.9435C85.2553 18.5154 85.5464 18.562 85.8166 18.6552C86.0868 18.7483 86.3224 18.8848 86.5233 19.0644C86.7312 19.2441 86.8906 19.4637 87.0014 19.7232C87.1192 19.9828 87.1781 20.2789 87.1781 20.6116C87.1781 20.9443 87.1192 21.2405 87.0014 21.5C86.8906 21.7595 86.7312 21.9791 86.5233 22.1588C86.3224 22.3385 86.0868 22.4749 85.8166 22.5681C85.5464 22.6612 85.2553 22.7078 84.9435 22.7078H82.8233Z" fill="black"/>
<path d="M91.293 25.1034C90.6763 25.1034 90.1151 24.967 89.6092 24.6942C89.1104 24.4147 88.712 24.0254 88.414 23.5263C88.1161 23.0272 87.9671 22.4383 87.9671 21.7595C87.9671 21.0808 88.1161 20.4918 88.414 19.9927C88.712 19.487 89.1104 19.0977 89.6092 18.8249C90.1151 18.552 90.6763 18.4156 91.293 18.4156C91.9096 18.4156 92.4674 18.552 92.9663 18.8249C93.4721 19.0977 93.874 19.487 94.1719 19.9927C94.4699 20.4918 94.6188 21.0808 94.6188 21.7595C94.6188 22.4383 94.4699 23.0272 94.1719 23.5263C93.874 24.0254 93.4721 24.4147 92.9663 24.6942C92.4674 24.967 91.9096 25.1034 91.293 25.1034ZM91.293 24.3548C91.7641 24.3548 92.1868 24.2583 92.5609 24.0653C92.9351 23.8657 93.233 23.5729 93.4548 23.1869C93.6765 22.801 93.7874 22.3252 93.7874 21.7595C93.7874 21.1939 93.6765 20.7214 93.4548 20.3421C93.233 19.9561 92.9351 19.6633 92.5609 19.4637C92.1868 19.2641 91.7641 19.1642 91.293 19.1642C90.8287 19.1642 90.4061 19.2641 90.025 19.4637C89.6508 19.6633 89.3529 19.9561 89.1312 20.3421C88.9094 20.7214 88.7986 21.1939 88.7986 21.7595C88.7986 22.3252 88.9094 22.801 89.1312 23.1869C89.3529 23.5729 89.6508 23.8657 90.025 24.0653C90.4061 24.2583 90.8287 24.3548 91.293 24.3548Z" fill="black"/>
<path d="M101.19 24.0554L100.961 24.1252V18.5154H101.793V25.0036H100.961L96.5752 19.4737L96.8039 19.4038V25.0036H95.9724V18.5154H96.8039L101.19 24.0554Z" fill="black"/>
<path d="M102.995 22.8975H103.744C103.765 23.177 103.851 23.4265 104.004 23.6461C104.156 23.8657 104.364 24.0387 104.627 24.1652C104.897 24.2916 105.213 24.3548 105.573 24.3548C105.885 24.3548 106.145 24.3116 106.352 24.225C106.567 24.1319 106.727 24.0054 106.831 23.8457C106.941 23.686 106.997 23.4997 106.997 23.2868C106.997 23.0672 106.941 22.8908 106.831 22.7577C106.72 22.6246 106.56 22.5115 106.352 22.4183C106.145 22.3252 105.899 22.2353 105.615 22.1488C105.344 22.069 105.071 21.9758 104.793 21.8693C104.516 21.7629 104.256 21.6331 104.014 21.48C103.778 21.327 103.588 21.144 103.442 20.931C103.297 20.7114 103.224 20.4486 103.224 20.1425C103.224 19.843 103.307 19.5635 103.474 19.304C103.647 19.0378 103.896 18.8249 104.222 18.6652C104.554 18.4988 104.953 18.4156 105.417 18.4156C106.145 18.4156 106.689 18.6053 107.049 18.9846C107.409 19.3639 107.582 19.8663 107.568 20.4918H106.82C106.806 20.0194 106.668 19.68 106.404 19.4737C106.141 19.2674 105.798 19.1642 105.375 19.1642C105.022 19.1642 104.714 19.2441 104.45 19.4038C104.187 19.5569 104.056 19.7998 104.056 20.1325C104.056 20.2789 104.083 20.4087 104.139 20.5218C104.201 20.6283 104.298 20.7281 104.43 20.8212C104.568 20.9144 104.752 21.0076 104.981 21.1007C105.216 21.1872 105.504 21.2837 105.843 21.3902C106.065 21.4567 106.29 21.5366 106.519 21.6298C106.754 21.7229 106.969 21.8394 107.163 21.9791C107.364 22.1189 107.523 22.2985 107.641 22.5181C107.766 22.7311 107.828 23.0006 107.828 23.3267C107.828 23.6394 107.749 23.9322 107.589 24.2051C107.437 24.4713 107.194 24.6875 106.862 24.8539C106.536 25.0203 106.113 25.1034 105.594 25.1034C105.15 25.1034 104.769 25.0469 104.45 24.9338C104.139 24.814 103.882 24.6609 103.681 24.4746C103.48 24.2883 103.325 24.0953 103.214 23.8956C103.11 23.6894 103.04 23.4964 103.006 23.3167C102.971 23.137 102.968 22.9973 102.995 22.8975Z" fill="black"/>
<path d="M109.824 23.3067V22.5581H113.067V23.3067H109.824ZM108.452 25.0036L111.019 18.5154H111.892L114.48 25.0036H113.586L111.331 19.1343H111.58L109.325 25.0036H108.452Z" fill="black"/>
<path d="M115.521 25.0036V18.5154H118.181C118.881 18.5154 119.425 18.6685 119.813 18.9746C120.208 19.2807 120.406 19.7066 120.406 20.2523C120.406 20.5917 120.333 20.8678 120.187 21.0808C120.049 21.2937 119.851 21.4534 119.595 21.5599C119.339 21.6664 119.037 21.7362 118.691 21.7695L118.711 21.7096C118.968 21.7229 119.21 21.7562 119.439 21.8094C119.668 21.856 119.869 21.9325 120.042 22.039C120.222 22.1455 120.364 22.2919 120.468 22.4782C120.572 22.6645 120.624 22.9041 120.624 23.1969C120.624 23.5895 120.534 23.9156 120.354 24.1751C120.173 24.4347 119.921 24.6343 119.595 24.774C119.276 24.9071 118.909 24.9837 118.493 25.0036H115.521ZM116.352 24.255H118.285C118.757 24.255 119.124 24.1718 119.387 24.0054C119.657 23.8324 119.792 23.5629 119.792 23.1969C119.792 22.9041 119.706 22.6845 119.533 22.5381C119.366 22.3917 119.151 22.2952 118.888 22.2486C118.625 22.1954 118.355 22.1688 118.078 22.1688H116.352V24.255ZM116.352 21.4201H118.078C118.549 21.4201 118.916 21.3237 119.179 21.1307C119.449 20.931 119.585 20.6482 119.585 20.2822C119.585 19.9229 119.449 19.6633 119.179 19.5036C118.916 19.3439 118.583 19.2641 118.181 19.2641H116.352V21.4201Z" fill="black"/>
<path d="M122.757 18.5154V24.255H126.498V25.0036H121.925V18.5154H122.757Z" fill="black"/>
<path d="M128.684 22.1488V24.255H132.644V25.0036H127.853V18.5154H132.634V19.2641H128.684V21.4002H131.916V22.1488H128.684Z" fill="black"/>
<path d="M138.47 18.5154C139.149 18.5154 139.717 18.6019 140.174 18.775C140.639 18.9413 141.009 19.1742 141.286 19.4737C141.564 19.7731 141.765 20.1159 141.889 20.5018C142.014 20.8878 142.076 21.297 142.076 21.7296C142.076 22.1621 142.011 22.5747 141.879 22.9673C141.747 23.36 141.536 23.7093 141.245 24.0154C140.961 24.3215 140.59 24.5644 140.133 24.7441C139.676 24.9171 139.121 25.0036 138.47 25.0036H136.277V18.5154H138.47ZM137.108 24.255H138.47C139.017 24.255 139.468 24.1818 139.821 24.0354C140.181 23.889 140.465 23.696 140.673 23.4564C140.881 23.2102 141.027 22.9374 141.11 22.6379C141.2 22.3385 141.245 22.0357 141.245 21.7296C141.245 21.4235 141.2 21.124 141.11 20.8312C141.027 20.5384 140.881 20.2756 140.673 20.0427C140.465 19.8031 140.181 19.6134 139.821 19.4737C139.468 19.3339 139.017 19.2641 138.47 19.2641H137.108V24.255Z" fill="black"/>
<path d="M143.978 23.3067V22.5581H147.22V23.3067H143.978ZM142.606 25.0036L145.173 18.5154H146.046L148.634 25.0036H147.74L145.485 19.1343H145.734L143.479 25.0036H142.606Z" fill="black"/>
<path d="M154.892 24.0554L154.663 24.1252V18.5154H155.495V25.0036H154.663L150.277 19.4737L150.506 19.4038V25.0036H149.675V18.5154H150.506L154.892 24.0554Z" fill="black"/>
<path d="M156.698 22.8975H157.446C157.467 23.177 157.553 23.4265 157.706 23.6461C157.858 23.8657 158.066 24.0387 158.329 24.1652C158.6 24.2916 158.915 24.3548 159.275 24.3548C159.587 24.3548 159.847 24.3116 160.055 24.225C160.269 24.1319 160.429 24.0054 160.533 23.8457C160.644 23.686 160.699 23.4997 160.699 23.2868C160.699 23.0672 160.644 22.8908 160.533 22.7577C160.422 22.6246 160.262 22.5115 160.055 22.4183C159.847 22.3252 159.601 22.2353 159.317 22.1488C159.046 22.069 158.773 21.9758 158.496 21.8693C158.218 21.7629 157.959 21.6331 157.716 21.48C157.481 21.327 157.29 21.144 157.144 20.931C156.999 20.7114 156.926 20.4486 156.926 20.1425C156.926 19.843 157.009 19.5635 157.176 19.304C157.349 19.0378 157.598 18.8249 157.924 18.6652C158.257 18.4988 158.655 18.4156 159.119 18.4156C159.847 18.4156 160.391 18.6053 160.751 18.9846C161.111 19.3639 161.284 19.8663 161.271 20.4918H160.522C160.508 20.0194 160.37 19.68 160.107 19.4737C159.843 19.2674 159.5 19.1642 159.078 19.1642C158.724 19.1642 158.416 19.2441 158.153 19.4038C157.889 19.5569 157.758 19.7998 157.758 20.1325C157.758 20.2789 157.785 20.4087 157.841 20.5218C157.903 20.6283 158 20.7281 158.132 20.8212C158.27 20.9144 158.454 21.0076 158.683 21.1007C158.918 21.1872 159.206 21.2837 159.545 21.3902C159.767 21.4567 159.992 21.5366 160.221 21.6298C160.456 21.7229 160.671 21.8394 160.865 21.9791C161.066 22.1189 161.226 22.2985 161.343 22.5181C161.468 22.7311 161.53 23.0006 161.53 23.3267C161.53 23.6394 161.451 23.9322 161.291 24.2051C161.139 24.4713 160.896 24.6875 160.564 24.8539C160.238 25.0203 159.816 25.1034 159.296 25.1034C158.852 25.1034 158.471 25.0469 158.153 24.9338C157.841 24.814 157.584 24.6609 157.384 24.4746C157.183 24.2883 157.027 24.0953 156.916 23.8956C156.812 23.6894 156.743 23.4964 156.708 23.3167C156.673 23.137 156.67 22.9973 156.698 22.8975Z" fill="black"/>
<path d="M165.791 18.5154V24.255H169.533V25.0036H164.96V18.5154H165.791Z" fill="black"/>
<path d="M171.636 23.3067V22.5581H174.878V23.3067H171.636ZM170.264 25.0036L172.831 18.5154H173.704L176.292 25.0036H175.398L173.143 19.1343H173.392L171.137 25.0036H170.264Z" fill="black"/>
<path d="M185.325 22.8376C185.255 23.3034 185.089 23.706 184.826 24.0454C184.562 24.3848 184.226 24.6476 183.818 24.8339C183.416 25.0136 182.965 25.1034 182.466 25.1034C182.002 25.1034 181.573 25.0269 181.178 24.8739C180.783 24.7142 180.436 24.4879 180.138 24.1951C179.847 23.9023 179.619 23.5496 179.452 23.137C179.286 22.7244 179.203 22.2653 179.203 21.7595C179.203 21.2471 179.286 20.788 179.452 20.382C179.619 19.9694 179.847 19.6168 180.138 19.324C180.436 19.0312 180.783 18.8082 181.178 18.6552C181.573 18.4955 182.002 18.4156 182.466 18.4156C182.972 18.4156 183.426 18.5088 183.828 18.6951C184.237 18.8748 184.573 19.1376 184.836 19.4837C185.099 19.823 185.266 20.229 185.335 20.7015H184.566C184.469 20.3687 184.316 20.0892 184.109 19.863C183.908 19.6367 183.665 19.4637 183.381 19.3439C183.097 19.2241 182.792 19.1642 182.466 19.1642C182.044 19.1642 181.645 19.2641 181.271 19.4637C180.904 19.6633 180.606 19.9561 180.377 20.3421C180.149 20.7281 180.034 21.2005 180.034 21.7595C180.034 22.3185 180.149 22.791 180.377 23.177C180.606 23.5629 180.904 23.8557 181.271 24.0554C181.645 24.255 182.044 24.3548 182.466 24.3548C182.792 24.3548 183.093 24.2982 183.371 24.1851C183.655 24.0653 183.897 23.8923 184.098 23.6661C184.306 23.4398 184.458 23.1636 184.555 22.8376H185.325Z" fill="black"/>
<path d="M191.419 22.5082V18.5154H192.251V22.5082C192.251 22.8742 192.206 23.2002 192.116 23.4864C192.026 23.7659 191.898 24.0088 191.731 24.2151C191.572 24.4214 191.378 24.591 191.149 24.7241C190.921 24.8506 190.664 24.9437 190.38 25.0036C190.103 25.0702 189.805 25.1034 189.486 25.1034C189.161 25.1034 188.856 25.0702 188.572 25.0036C188.288 24.9437 188.028 24.8506 187.792 24.7241C187.564 24.591 187.366 24.4214 187.2 24.2151C187.04 24.0088 186.916 23.7659 186.826 23.4864C186.736 23.2002 186.691 22.8742 186.691 22.5082V18.5154H187.522V22.5082C187.522 23.0073 187.612 23.3899 187.792 23.6561C187.972 23.9223 188.211 24.1053 188.509 24.2051C188.807 24.3049 189.133 24.3548 189.486 24.3548C189.833 24.3548 190.152 24.3049 190.443 24.2051C190.734 24.1053 190.969 23.9223 191.149 23.6561C191.329 23.3899 191.419 23.0073 191.419 22.5082Z" fill="black"/>
<path d="M194.749 18.5154V24.255H198.49V25.0036H193.917V18.5154H194.749Z" fill="black"/>
<path d="M198.55 18.5154H203.954V19.2641H198.55V18.5154ZM200.836 19.1842H201.668V25.0036H200.836V19.1842Z" fill="black"/>
<path d="M209.669 22.5082V18.5154H210.5V22.5082C210.5 22.8742 210.455 23.2002 210.365 23.4864C210.275 23.7659 210.147 24.0088 209.98 24.2151C209.821 24.4214 209.627 24.591 209.398 24.7241C209.17 24.8506 208.913 24.9437 208.629 25.0036C208.352 25.0702 208.054 25.1034 207.735 25.1034C207.41 25.1034 207.105 25.0702 206.821 25.0036C206.537 24.9437 206.277 24.8506 206.041 24.7241C205.813 24.591 205.615 24.4214 205.449 24.2151C205.29 24.0088 205.165 23.7659 205.075 23.4864C204.985 23.2002 204.94 22.8742 204.94 22.5082V18.5154H205.771V22.5082C205.771 23.0073 205.861 23.3899 206.041 23.6561C206.222 23.9223 206.461 24.1053 206.759 24.2051C207.056 24.3049 207.382 24.3548 207.735 24.3548C208.082 24.3548 208.401 24.3049 208.692 24.2051C208.983 24.1053 209.218 23.9223 209.398 23.6561C209.579 23.3899 209.669 23.0073 209.669 22.5082Z" fill="black"/>
<path d="M212.166 25.0036V18.5154H215.149C215.62 18.5154 216.022 18.5853 216.355 18.725C216.687 18.8581 216.94 19.0611 217.114 19.3339C217.294 19.6068 217.384 19.9495 217.384 20.3621C217.384 20.6416 217.335 20.8811 217.238 21.0808C217.148 21.2804 217.02 21.4501 216.854 21.5898C216.687 21.7229 216.49 21.8261 216.261 21.8993C216.04 21.9725 215.797 22.0191 215.534 22.039L215.503 21.9891C215.87 22.0024 216.185 22.0457 216.448 22.1189C216.712 22.1921 216.916 22.3252 217.062 22.5181C217.207 22.7111 217.28 23.0006 217.28 23.3866V25.0036H216.448V23.3866C216.448 23.1204 216.4 22.9141 216.303 22.7677C216.213 22.6146 216.057 22.5082 215.835 22.4483C215.62 22.3817 215.322 22.3485 214.941 22.3485H212.998V25.0036H212.166ZM212.998 21.5998H215.149C215.62 21.5998 215.97 21.4867 216.199 21.2604C216.435 21.0275 216.552 20.7281 216.552 20.3621C216.552 20.0094 216.435 19.7399 216.199 19.5535C215.97 19.3606 215.62 19.2641 215.149 19.2641H212.998V21.5998Z" fill="black"/>
<path d="M219.666 22.1488V24.255H223.626V25.0036H218.835V18.5154H223.616V19.2641H219.666V21.4002H222.898V22.1488H219.666Z" fill="black"/>
<path d="M0 14.52L6.688 0.286H9.856L16.61 14.52H13.42L7.568 1.694H8.976L3.168 14.52H0Z" fill="black"/>
<path d="M35.8036 8.228V0.286H38.7296V8.536C38.7296 9.47467 38.5903 10.296 38.3116 11C38.0476 11.704 37.6663 12.298 37.1676 12.782C36.669 13.266 36.0823 13.662 35.4076 13.97C34.7476 14.2633 34.0216 14.476 33.2296 14.608C32.4523 14.74 31.631 14.806 30.7656 14.806C29.871 14.806 29.0203 14.74 28.2136 14.608C27.407 14.476 26.6663 14.2633 25.9916 13.97C25.3316 13.662 24.7596 13.266 24.2756 12.782C23.7916 12.298 23.4103 11.704 23.1316 11C22.8676 10.296 22.7356 9.47467 22.7356 8.536V0.286H25.6616V8.228C25.6616 9.34267 25.8816 10.1933 26.3216 10.78C26.7616 11.352 27.363 11.748 28.1256 11.968C28.903 12.1733 29.783 12.276 30.7656 12.276C31.719 12.276 32.5696 12.1733 33.3176 11.968C34.0803 11.748 34.6816 11.352 35.1216 10.78C35.5763 10.1933 35.8036 9.34267 35.8036 8.228Z" fill="black"/>
<path d="M54.6985 14.806C53.3785 14.806 52.1832 14.652 51.1125 14.344C50.0565 14.036 49.1399 13.574 48.3625 12.958C47.5999 12.342 47.0132 11.5793 46.6025 10.67C46.1919 9.76067 45.9865 8.712 45.9865 7.524C45.9865 6.32133 46.1992 5.258 46.6245 4.334C47.0645 3.39533 47.6805 2.60333 48.4725 1.958C49.2792 1.31267 50.2325 0.828667 51.3325 0.506C52.4472 0.168667 53.6792 0 55.0285 0C56.6272 0 58.0059 0.227333 59.1645 0.682C60.3232 1.122 61.2325 1.74533 61.8925 2.552C62.5672 3.35867 62.9485 4.31933 63.0365 5.434H60.2205C60.0299 4.84733 59.7145 4.34133 59.2745 3.916C58.8492 3.476 58.2845 3.13867 57.5805 2.904C56.8765 2.65467 56.0259 2.53 55.0285 2.53C53.7525 2.53 52.6599 2.73533 51.7505 3.146C50.8559 3.55667 50.1739 4.136 49.7045 4.884C49.2352 5.632 49.0005 6.512 49.0005 7.524C49.0005 8.50667 49.2059 9.35733 49.6165 10.076C50.0272 10.78 50.6579 11.3227 51.5085 11.704C52.3739 12.0853 53.4739 12.276 54.8085 12.276C55.8352 12.276 56.7372 12.144 57.5145 11.88C58.3065 11.6013 58.9665 11.2347 59.4945 10.78C60.0225 10.3107 60.3965 9.79 60.6165 9.218L61.7605 8.8C61.5699 10.692 60.8512 12.166 59.6045 13.222C58.3725 14.278 56.7372 14.806 54.6985 14.806ZM61.0125 14.52C61.0125 14.0653 61.0419 13.5447 61.1005 12.958C61.1592 12.3567 61.2325 11.7553 61.3205 11.154C61.4085 10.538 61.4892 9.97333 61.5625 9.46H55.0505V7.59H63.5425V14.52H61.0125Z" fill="black"/>
<path d="M84.0919 8.228V0.286H87.0179V8.536C87.0179 9.47467 86.8786 10.296 86.5999 11C86.3359 11.704 85.9546 12.298 85.4559 12.782C84.9572 13.266 84.3706 13.662 83.6959 13.97C83.0359 14.2633 82.3099 14.476 81.5179 14.608C80.7406 14.74 79.9192 14.806 79.0539 14.806C78.1592 14.806 77.3086 14.74 76.5019 14.608C75.6952 14.476 74.9546 14.2633 74.2799 13.97C73.6199 13.662 73.0479 13.266 72.5639 12.782C72.0799 12.298 71.6986 11.704 71.4199 11C71.1559 10.296 71.0239 9.47467 71.0239 8.536V0.286H73.9499V8.228C73.9499 9.34267 74.1699 10.1933 74.6099 10.78C75.0499 11.352 75.6512 11.748 76.4139 11.968C77.1912 12.1733 78.0712 12.276 79.0539 12.276C80.0072 12.276 80.8579 12.1733 81.6059 11.968C82.3686 11.748 82.9699 11.352 83.4099 10.78C83.8646 10.1933 84.0919 9.34267 84.0919 8.228Z" fill="black"/>
<path d="M94.8028 14.52V0.286H104.461C105.561 0.286 106.514 0.44 107.321 0.747999C108.142 1.04133 108.78 1.51067 109.235 2.156C109.689 2.78667 109.917 3.60067 109.917 4.598C109.917 5.27267 109.799 5.84467 109.565 6.314C109.33 6.78333 109 7.16467 108.575 7.458C108.164 7.75133 107.687 7.97867 107.145 8.14C106.602 8.28667 106.023 8.382 105.407 8.426L105.099 8.25C106.125 8.26467 106.969 8.35267 107.629 8.514C108.289 8.66067 108.78 8.93933 109.103 9.35C109.44 9.746 109.609 10.34 109.609 11.132V14.52H106.683V11.33C106.683 10.7873 106.587 10.3693 106.397 10.076C106.206 9.768 105.861 9.55533 105.363 9.438C104.879 9.32067 104.175 9.262 103.251 9.262H97.7288V14.52H94.8028ZM97.7288 6.974H104.461C105.282 6.974 105.905 6.776 106.331 6.38C106.771 5.984 106.991 5.44867 106.991 4.774C106.991 4.12867 106.771 3.63733 106.331 3.3C105.905 2.96267 105.282 2.794 104.461 2.794H97.7288V6.974Z" fill="black"/>
<path d="M120.305 8.58V12.078H131.283V14.52H117.379V0.286H131.261V2.728H120.305V6.27H129.281V8.58H120.305Z" fill="black"/>
<path d="M137.741 9.724H140.711C140.769 10.2227 140.997 10.6773 141.393 11.088C141.803 11.484 142.339 11.7993 142.999 12.034C143.659 12.254 144.399 12.364 145.221 12.364C145.969 12.364 146.585 12.2833 147.069 12.122C147.553 11.9607 147.912 11.7333 148.147 11.44C148.381 11.1467 148.499 10.7947 148.499 10.384C148.499 9.988 148.352 9.68733 148.059 9.482C147.765 9.262 147.303 9.086 146.673 8.954C146.042 8.80733 145.213 8.66067 144.187 8.514C143.38 8.39667 142.617 8.23533 141.899 8.03C141.18 7.81 140.542 7.53133 139.985 7.194C139.442 6.85667 139.009 6.446 138.687 5.962C138.379 5.46333 138.225 4.87667 138.225 4.202C138.225 3.366 138.459 2.63267 138.929 2.002C139.413 1.37133 140.124 0.88 141.063 0.528C142.001 0.176 143.153 0 144.517 0C146.57 0 148.147 0.44 149.247 1.32C150.361 2.18533 150.904 3.38067 150.875 4.906H148.015C147.956 4.04067 147.589 3.41733 146.915 3.036C146.255 2.65467 145.419 2.464 144.407 2.464C143.468 2.464 142.691 2.60333 142.075 2.882C141.473 3.16067 141.173 3.63733 141.173 4.312C141.173 4.576 141.246 4.81067 141.393 5.016C141.539 5.20667 141.789 5.37533 142.141 5.522C142.493 5.66867 142.969 5.808 143.571 5.94C144.172 6.072 144.92 6.204 145.815 6.336C146.651 6.45333 147.406 6.61467 148.081 6.82C148.77 7.01067 149.357 7.26733 149.841 7.59C150.339 7.898 150.721 8.294 150.985 8.778C151.249 9.262 151.381 9.856 151.381 10.56C151.381 11.4253 151.153 12.1807 150.699 12.826C150.259 13.4567 149.569 13.948 148.631 14.3C147.707 14.652 146.504 14.828 145.023 14.828C143.967 14.828 143.035 14.718 142.229 14.498C141.422 14.2633 140.725 13.9553 140.139 13.574C139.552 13.1927 139.075 12.7747 138.709 12.32C138.342 11.8653 138.078 11.4107 137.917 10.956C137.77 10.5013 137.711 10.0907 137.741 9.724Z" fill="black"/>
<path d="M170.995 0.286V12.078H180.455V14.52H168.069V0.286H170.995Z" fill="black"/>
<path d="M186.252 14.52L192.94 0.286H196.108L202.862 14.52H199.672L193.82 1.694H195.228L189.42 14.52H186.252Z" fill="black"/>
<path d="M209.332 14.52V0.286H217.538C219.444 0.286 220.889 0.608667 221.872 1.254C222.869 1.88467 223.368 2.83067 223.368 4.092C223.368 4.89867 223.17 5.53667 222.774 6.006C222.378 6.46067 221.813 6.798 221.08 7.018C220.361 7.238 219.51 7.37733 218.528 7.436L218.616 7.282C219.334 7.29667 220.009 7.348 220.64 7.436C221.285 7.524 221.85 7.68533 222.334 7.92C222.818 8.15467 223.199 8.48467 223.478 8.91C223.756 9.32067 223.896 9.86333 223.896 10.538C223.896 11.418 223.661 12.1513 223.192 12.738C222.722 13.31 222.07 13.7427 221.234 14.036C220.398 14.3293 219.43 14.4907 218.33 14.52H209.332ZM212.258 12.1H218.022C218.946 12.1 219.657 11.9533 220.156 11.66C220.654 11.352 220.904 10.868 220.904 10.208C220.904 9.724 220.757 9.372 220.464 9.152C220.17 8.932 219.782 8.8 219.298 8.756C218.814 8.69733 218.293 8.668 217.736 8.668H212.258V12.1ZM212.258 6.314H217.428C218.352 6.314 219.063 6.182 219.562 5.918C220.06 5.63933 220.31 5.17 220.31 4.51C220.31 3.85 220.06 3.388 219.562 3.124C219.063 2.84533 218.403 2.706 217.582 2.706H212.258V6.314Z" fill="black"/>
</g>
<defs>
<clipPath id="clip0_201_674">
<rect width="223.896" height="27" fill="white"/>
</clipPath>
</defs>
</svg>
